<svg width="38" height="20" viewBox="0 0 38 20" fill="none" xmlns="http://www.w3.org/2000/svg">
<path d="M0.00758272 12.2034V9.07627H3.40198V5.20078H6.66274V9.07627H10.0839V12.2034H6.68946V16.0789H3.42871V12.2034H0.00758272ZM17.929 0.683826H17.9557C19.8445 0.683826 21.2789 1.13819 22.2589 2.04693C23.2389 2.95566 23.7289 4.23859 23.7289 5.89569C23.7289 6.82225 23.5418 7.65971 23.1676 8.40808C22.8112 9.15645 22.2945 9.93155 21.6174 10.7334L17.4746 15.6512L16.9668 16.2125H23.6487V19.5H12.3964V16.2125L18.3567 9.31682C18.9268 8.63972 19.3367 8.06062 19.5861 7.57953C19.8534 7.09843 19.987 6.59952 19.987 6.08279C19.987 5.5126 19.8178 5.05823 19.4792 4.71968C19.1407 4.38113 18.6328 4.21186 17.9557 4.21186H17.929C16.6639 4.21186 15.9155 4.97805 15.6839 6.51043L12.1559 5.89569C12.3697 4.11386 12.9488 2.80421 13.8932 1.96675C14.8553 1.11147 16.2006 0.683826 17.929 0.683826ZM29.4033 14.1545C29.4923 14.7781 29.7329 15.2949 30.1249 15.7047C30.5169 16.0967 31.0515 16.2927 31.7286 16.2927H31.7553C32.4858 16.2927 33.0115 16.0789 33.3322 15.6512C33.6529 15.2058 33.8133 14.6356 33.8133 13.9407C33.8133 13.1567 33.644 12.5419 33.3055 12.0965C32.9847 11.6332 32.3433 11.4016 31.3811 11.4016H26.6771L26.9176 1.00456H36.6999V4.37222H30.3922L30.312 8.08735H31.6484C33.7331 8.08735 35.2388 8.63081 36.1653 9.71773C37.0919 10.7868 37.5552 12.2568 37.5552 14.1278C37.5552 15.9096 37.0651 17.3083 36.0851 18.324C35.1051 19.3218 33.6529 19.8207 31.7286 19.8207H31.7018C30.0091 19.8207 28.6549 19.402 27.6392 18.5645C26.6414 17.7093 26.0445 16.4442 25.8485 14.7692L29.4033 14.1545Z" fill="white"/>
</svg>
