<svg width="18" height="31" viewBox="0 0 18 31" fill="none" xmlns="http://www.w3.org/2000/svg">
<path d="M8.60541 0.372701H8.6488C11.5411 0.372701 13.6669 1.09577 15.0262 2.5419C16.3856 3.95911 17.0653 5.89693 17.0653 8.35536C17.0653 9.65688 16.8339 10.9006 16.3711 12.0864C15.9373 13.2433 15.2287 14.5303 14.2453 15.9476L7.47743 25.709H16.7182V30.915H0.709523V25.709L8.73556 14.1254C9.57432 12.9107 10.1528 11.8984 10.4709 11.0886C10.7891 10.2787 10.9481 9.4978 10.9481 8.74581C10.9481 7.9649 10.7601 7.3286 10.3842 6.83692C10.0082 6.34523 9.42971 6.09939 8.6488 6.09939H8.60541C7.65096 6.09939 7.0002 6.41754 6.65313 7.05384C6.30606 7.66121 6.13252 8.61566 6.13252 9.91718H0.362451C0.362451 6.67784 0.99875 4.27726 2.27135 2.71544C3.54394 1.15361 5.6553 0.372701 8.60541 0.372701Z" fill="white"/>
</svg>
