<svg width="13" height="20" viewBox="0 0 13 20" fill="none" xmlns="http://www.w3.org/2000/svg">
<path d="M0.597706 14.6089L4.15247 13.9941C4.24156 14.7781 4.49992 15.3572 4.92756 15.7314C5.3552 16.1056 5.92539 16.2927 6.63812 16.2927H6.66485C7.41322 16.2927 7.95668 16.1056 8.29523 15.7314C8.6516 15.3394 8.82978 14.7781 8.82978 14.0476C8.82978 13.3349 8.63378 12.7736 8.24178 12.3638C7.86759 11.9361 7.26177 11.7223 6.4243 11.7223H4.66029V8.78226H6.4243C7.17268 8.78226 7.70723 8.57735 8.02796 8.16753C8.3665 7.73989 8.53578 7.18752 8.53578 6.51043C8.53578 5.77987 8.3665 5.2186 8.02796 4.82659C7.68941 4.41677 7.17268 4.21186 6.47776 4.21186H6.45103C5.15029 4.21186 4.40192 4.96914 4.20592 6.4837L0.677888 5.86896C0.87389 4.12277 1.45299 2.82203 2.41518 1.96675C3.39519 1.11147 4.74047 0.683826 6.45103 0.683826H6.47776C8.38432 0.683826 9.82761 1.1471 10.8076 2.07366C11.7876 2.98239 12.2776 4.22077 12.2776 5.78878C12.2776 8.10517 11.3243 9.57518 9.41779 10.1988C10.5225 10.5196 11.3244 11.063 11.8233 11.8292C12.3222 12.5954 12.5716 13.5665 12.5716 14.7425C12.5716 16.2927 12.0727 17.5311 11.0749 18.4576C10.0771 19.3664 8.60705 19.8207 6.66485 19.8207H6.63812C4.85629 19.8207 3.44864 19.3931 2.41518 18.5378C1.39953 17.6825 0.793707 16.3729 0.597706 14.6089Z" fill="white"/>
</svg>
