<svg width="18" height="32" viewBox="0 0 18 32" fill="none" xmlns="http://www.w3.org/2000/svg">
<path d="M0.130448 21.8912H5.9439C5.9439 23.1927 6.1319 24.1616 6.5079 24.7979C6.91281 25.4053 7.62142 25.709 8.63371 25.709H8.6771C9.60262 25.709 10.2534 25.3908 10.6294 24.7545C11.0343 24.1182 11.2368 23.2071 11.2368 22.0213C11.2368 20.7487 10.9475 19.7798 10.3691 19.1146C9.81954 18.4204 8.99525 18.0734 7.89618 18.0734H5.59683V13.6048H7.89618C9.834 13.6048 10.8029 12.3322 10.8029 9.78703C10.8029 8.63012 10.6149 7.73352 10.2389 7.09722C9.86293 6.432 9.25555 6.09939 8.41679 6.09939H8.37341C7.44788 6.09939 6.81158 6.432 6.46451 7.09722C6.11744 7.73352 5.9439 8.65905 5.9439 9.8738H0.173832C0.173832 6.69231 0.810131 4.32065 2.08273 2.75882C3.38425 1.16807 5.48114 0.372701 8.37341 0.372701H8.41679C11.2512 0.372701 13.3626 1.13915 14.7509 2.67205C16.1391 4.17603 16.8333 6.15724 16.8333 8.61566C16.8333 12.4335 15.3727 14.834 12.4515 15.8174C15.6619 16.8008 17.2671 19.2592 17.2671 23.1927C17.2671 25.6511 16.573 27.6468 15.1847 29.1797C13.7964 30.6837 11.6417 31.4356 8.72048 31.4356H8.6771C5.69806 31.4356 3.52886 30.6403 2.1695 29.0495C0.810131 27.4588 0.130448 25.0727 0.130448 21.8912Z" fill="white"/>
</svg>
