<svg width="32" height="31" viewBox="0 0 32 31" fill="none" xmlns="http://www.w3.org/2000/svg">
<rect width="32" height="31" rx="10" fill="white"/>
<path d="M17.8033 8.43934C18.3891 7.85355 19.3388 7.85355 19.9246 8.43934C20.5104 9.02513 20.5104 9.97487 19.9246 10.5607L13.5607 16.9246C12.9749 17.5104 12.0251 17.5104 11.4393 16.9246C10.8536 16.3388 10.8536 15.3891 11.4393 14.8033L17.8033 8.43934Z" fill="#486DF0"/>
<path d="M19.9246 21.1674C20.5104 21.7532 20.5104 22.7029 19.9246 23.2887C19.3389 23.8745 18.3891 23.8745 17.8033 23.2887L11.4393 16.9246C10.8536 16.3388 10.8536 15.3891 11.4393 14.8033C12.0251 14.2175 12.9749 14.2176 13.5607 14.8034L19.9246 21.1674Z" fill="#486DF0"/>
</svg>
