<svg width="31" height="31" viewBox="0 0 31 31" fill="none" xmlns="http://www.w3.org/2000/svg">
<path d="M15.1246 10.0835C12.3467 10.0835 10.0797 12.3505 10.0797 15.1284C10.0797 17.9063 12.3467 20.1734 15.1246 20.1734C17.9026 20.1734 20.1696 17.9063 20.1696 15.1284C20.1696 12.3505 17.9026 10.0835 15.1246 10.0835ZM30.2557 15.1284C30.2557 13.0393 30.2746 10.9691 30.1573 8.88372C30.04 6.46154 29.4874 4.31185 27.7162 2.54063C25.9412 0.765627 23.7953 0.216851 21.3731 0.0995268C19.284 -0.0177976 17.2138 0.00112572 15.1284 0.00112572C13.0393 0.00112572 10.9691 -0.0177976 8.88372 0.0995268C6.46154 0.216851 4.31185 0.769411 2.54063 2.54063C0.765627 4.31564 0.216851 6.46154 0.0995268 8.88372C-0.0177976 10.9729 0.00112572 13.0431 0.00112572 15.1284C0.00112572 17.2138 -0.0177976 19.2878 0.0995268 21.3731C0.216851 23.7953 0.769412 25.945 2.54063 27.7162C4.31564 29.4912 6.46154 30.04 8.88372 30.1573C10.9729 30.2746 13.0431 30.2557 15.1284 30.2557C17.2175 30.2557 19.2878 30.2746 21.3731 30.1573C23.7953 30.04 25.945 29.4874 27.7162 27.7162C29.4912 25.9412 30.04 23.7953 30.1573 21.3731C30.2784 19.2878 30.2557 17.2175 30.2557 15.1284ZM15.1246 22.8907C10.829 22.8907 7.36229 19.424 7.36229 15.1284C7.36229 10.8328 10.829 7.36607 15.1246 7.36607C19.4202 7.36607 22.887 10.8328 22.887 15.1284C22.887 19.424 19.4202 22.8907 15.1246 22.8907ZM23.2049 8.86101C22.2019 8.86101 21.392 8.0511 21.392 7.04816C21.392 6.04523 22.2019 5.23531 23.2049 5.23531C24.2078 5.23531 25.0177 6.04523 25.0177 7.04816C25.018 7.28631 24.9713 7.52218 24.8803 7.74226C24.7893 7.96234 24.6558 8.16231 24.4874 8.33071C24.319 8.49911 24.1191 8.63263 23.899 8.72363C23.6789 8.81463 23.443 8.86131 23.2049 8.86101Z" fill="white"/>
</svg>
