<svg width="31" height="31" viewBox="0 0 31 31" fill="none" xmlns="http://www.w3.org/2000/svg">
<path fill-rule="evenodd" clip-rule="evenodd" d="M30.2394 15.1197C30.2394 23.4696 23.4696 30.2394 15.1197 30.2394C6.76985 30.2394 0 23.4696 0 15.1197C0 6.76985 6.76985 0 15.1197 0C23.4696 0 30.2394 6.76985 30.2394 15.1197ZM15.6615 11.1621C14.1911 11.7732 11.2516 13.0395 6.84419 14.9597C6.12852 15.2445 5.75305 15.5229 5.71903 15.7951C5.66107 16.2562 6.23814 16.4376 7.02185 16.6833C7.12895 16.7174 7.23982 16.7514 7.35322 16.7892C8.12559 17.0399 9.16381 17.3335 9.70308 17.3448C10.1932 17.3549 10.74 17.1533 11.3436 16.74C15.4612 13.9593 17.5867 12.5544 17.7203 12.5242C17.8148 12.5027 17.9458 12.475 18.034 12.5544C18.1222 12.6325 18.1134 12.7812 18.1046 12.8215C18.0466 13.0647 15.7862 15.1676 14.6145 16.2562C14.2491 16.5951 13.9908 16.8358 13.9379 16.8912C13.8194 17.0135 13.6985 17.1306 13.5825 17.2428C12.8644 17.9332 12.3276 18.4524 13.6128 19.2991C14.2302 19.706 14.7241 20.0424 15.2167 20.3776C15.7547 20.7442 16.2915 21.1096 16.987 21.5658C17.1634 21.6817 17.3322 21.8014 17.4973 21.9185C18.1235 22.3658 18.6867 22.7665 19.3822 22.7035C19.7854 22.6657 20.2037 22.2865 20.4154 21.1537C20.9156 18.475 21.9009 12.6741 22.129 10.2827C22.1428 10.0841 22.1344 9.88463 22.1038 9.68796C22.0854 9.52911 22.0081 9.38296 21.887 9.27846C21.7069 9.13105 21.4272 9.09955 21.3012 9.10207C20.7329 9.11215 19.861 9.4158 15.6615 11.1621Z" fill="white"/>
</svg>
