<svg width="45" height="45" viewBox="0 0 45 45" fill="none" xmlns="http://www.w3.org/2000/svg">
<path fill-rule="evenodd" clip-rule="evenodd" d="M44.5805 22.2903C44.5805 34.6001 34.6001 44.5805 22.2903 44.5805C9.98047 44.5805 0 34.6001 0 22.2903C0 9.98047 9.98047 0 22.2903 0C34.6001 0 44.5805 9.98047 44.5805 22.2903ZM23.089 16.4558C20.9213 17.3567 16.5877 19.2235 10.0901 22.0544C9.03499 22.4742 8.48145 22.8847 8.43129 23.2859C8.34585 23.9657 9.19659 24.2332 10.352 24.5954C10.5099 24.6456 10.6733 24.6958 10.8405 24.7515C11.9792 25.1211 13.5098 25.5539 14.3048 25.5706C15.0274 25.5855 15.8335 25.2883 16.7233 24.679C22.7937 20.5795 25.9273 18.5083 26.1242 18.4638C26.2635 18.4322 26.4567 18.3913 26.5867 18.5084C26.7167 18.6235 26.7037 18.8427 26.6907 18.9021C26.6053 19.2606 23.2729 22.3609 21.5454 23.9657C21.0067 24.4654 20.6259 24.8202 20.5479 24.9019C20.3733 25.0821 20.195 25.2549 20.0241 25.4202C18.9653 26.4381 18.174 27.2034 20.0687 28.4517C20.9789 29.0516 21.707 29.5476 22.4333 30.0417C23.2265 30.5822 24.0178 31.1209 25.0431 31.7933C25.3032 31.9642 25.5521 32.1407 25.7954 32.3135C26.7186 32.9729 27.5489 33.5636 28.5743 33.4707C29.1687 33.415 29.7854 32.8559 30.0974 31.1859C30.8349 27.2368 32.2874 18.6848 32.6237 15.1592C32.6441 14.8665 32.6317 14.5724 32.5865 14.2825C32.5595 14.0483 32.4454 13.8328 32.267 13.6788C32.0014 13.4615 31.589 13.415 31.4033 13.4187C30.5655 13.4336 29.2801 13.8813 23.089 16.4558Z" fill="white"/>
</svg>
