<svg width="13" height="13" viewBox="0 0 13 13" fill="none" xmlns="http://www.w3.org/2000/svg">
<path d="M12.7198 9.6232C12.5712 9.46496 12.0467 8.99708 11.0825 8.37808C10.1112 7.75368 9.39483 7.36435 9.18935 7.27356C9.17124 7.26553 9.15129 7.26258 9.13163 7.26504C9.11197 7.2675 9.09336 7.27526 9.07778 7.2875C8.7468 7.54563 8.18956 8.01977 8.15967 8.04539C7.96672 8.21074 7.96672 8.21074 7.80876 8.15923C7.531 8.06816 6.6681 7.60995 5.91619 6.85634C5.16429 6.10273 4.68246 5.21848 4.59139 4.941C4.53931 4.78276 4.53931 4.78276 4.70523 4.5898C4.73084 4.55992 5.20527 4.00268 5.4634 3.67198C5.47564 3.6564 5.48341 3.63779 5.48586 3.61813C5.48832 3.59848 5.48537 3.57852 5.47734 3.56042C5.38656 3.35465 4.99723 2.6386 4.37282 1.66727C3.75297 0.703341 3.28566 0.178828 3.12742 0.0302682C3.1129 0.0165657 3.09495 0.00703347 3.07547 0.00267592C3.05598 -0.00168163 3.03569 -0.000703108 3.01671 0.00550828C2.46359 0.195587 1.92991 0.438124 1.42297 0.729809C0.933579 1.0143 0.470258 1.34143 0.0383992 1.7074C0.0233241 1.72022 0.0120218 1.7369 0.00570456 1.75565C-0.000612696 1.7744 -0.00170664 1.79452 0.00253999 1.81384C0.0620209 2.09104 0.346334 3.24821 1.22859 4.85107C2.12877 6.48693 2.75261 7.32507 4.07456 8.64247C5.39652 9.95987 6.26112 10.6213 7.8987 11.5215C9.50155 12.4037 10.6593 12.6883 10.9359 12.7472C10.9553 12.7514 10.9754 12.7503 10.9942 12.744C11.013 12.7377 11.0297 12.7264 11.0426 12.7114C11.4085 12.2795 11.7356 11.8162 12.02 11.3268C12.3116 10.8198 12.5541 10.2861 12.7443 9.73305C12.7503 9.71422 12.7513 9.69411 12.747 9.67479C12.7427 9.65548 12.7333 9.63766 12.7198 9.6232Z" fill="white"/>
</svg>
