<svg width="333" height="333" viewBox="0 0 333 333" fill="none" xmlns="http://www.w3.org/2000/svg">
<path d="M236.053 166.091C236.053 203.368 205.834 233.586 168.558 233.586C131.282 233.586 101.064 203.368 101.064 166.091C101.064 128.815 131.282 98.5969 168.558 98.5969C205.834 98.5969 236.053 128.815 236.053 166.091ZM168.558 233.997C206.061 233.997 236.464 203.595 236.464 166.091C236.464 128.588 206.061 98.1858 168.558 98.1858C131.055 98.1858 100.652 128.588 100.652 166.091C100.652 203.595 131.055 233.997 168.558 233.997ZM270.804 166.091C270.804 222.56 225.027 268.337 168.558 268.337C112.089 268.337 66.3126 222.56 66.3126 166.091C66.3126 109.623 112.089 63.8459 168.558 63.8459C225.027 63.8459 270.804 109.623 270.804 166.091ZM168.558 268.748C225.254 268.748 271.215 222.787 271.215 166.091C271.215 109.396 225.254 63.4348 168.558 63.4348C111.862 63.4348 65.9015 109.396 65.9015 166.091C65.9015 222.787 111.862 268.748 168.558 268.748ZM296.21 166.091C296.21 236.592 239.058 293.743 168.558 293.743C98.0579 293.743 40.9062 236.592 40.9062 166.091C40.9062 95.5912 98.0579 38.4395 168.558 38.4395C239.058 38.4395 296.21 95.5912 296.21 166.091ZM168.558 294.154C239.285 294.154 296.621 236.819 296.621 166.091C296.621 95.3641 239.285 38.0283 168.558 38.0283C97.8308 38.0283 40.495 95.3641 40.495 166.091C40.495 236.819 97.8308 294.154 168.558 294.154ZM331.977 166.091C331.977 257.708 257.708 331.977 166.091 331.977C74.4752 331.977 0.205559 257.708 0.205559 166.091C0.205559 74.4752 74.4752 0.205559 166.091 0.205559C257.708 0.205559 331.977 74.4752 331.977 166.091Z" stroke="url(#paint0_linear_383:660)" stroke-width="0.411117"/>
<defs>
<linearGradient id="paint0_linear_383:660" x1="166.091" y1="0" x2="166.091" y2="226.731" gradientUnits="userSpaceOnUse">
<stop stop-color="white" stop-opacity="0.23"/>
<stop offset="1" stop-color="white" stop-opacity="0"/>
</linearGradient>
</defs>
</svg>
