<svg width="31" height="32" viewBox="0 0 31 32" fill="none" xmlns="http://www.w3.org/2000/svg">
<path d="M19.7609 0.964691H10.4786C2.00803 0.964691 0 2.97272 0 11.4433V20.7256C0 29.1961 2.00803 31.2042 10.4786 31.2042H19.7609C28.2314 31.2042 30.2395 29.1961 30.2395 20.7256V11.4433C30.2395 2.97272 28.2116 0.964691 19.7609 0.964691ZM24.4119 22.5361H22.2168C21.3852 22.5361 21.1292 21.8765 19.6333 20.3608C18.334 19.1012 17.7585 18.9339 17.4382 18.9339C16.9855 18.9339 16.857 19.0615 16.857 19.6823V21.6658C16.857 22.1978 16.6898 22.5172 15.2818 22.5172C12.9534 22.5172 10.3699 21.1092 8.55845 18.486C5.82658 14.642 5.07913 11.7627 5.07913 11.1674C5.07913 10.847 5.2067 10.5475 5.82186 10.5475H8.02171C8.57829 10.5475 8.78996 10.8035 9.00635 11.3989C10.094 14.539 11.9055 17.2897 12.6529 17.2897C12.9289 17.2897 13.0564 17.1621 13.0564 16.4582V13.2151C12.9723 11.7192 12.1852 11.5907 12.1852 11.0596C12.1852 10.8035 12.3968 10.5475 12.7361 10.5475H16.1956C16.6633 10.5475 16.8353 10.8035 16.8353 11.3545V15.7296C16.8353 16.2021 17.047 16.3693 17.1745 16.3693C17.4505 16.3693 17.6867 16.2021 18.1979 15.6899C19.7779 13.9181 20.9099 11.1863 20.9099 11.1863C21.0574 10.8659 21.3134 10.5664 21.87 10.5664H24.0699C24.7294 10.5664 24.8769 10.9056 24.7294 11.3781C24.4535 12.6575 21.7613 16.4572 21.7613 16.4572C21.5298 16.8409 21.441 17.0081 21.7613 17.4362C21.9976 17.7565 22.7658 18.4208 23.277 19.0161C24.2173 20.0839 24.9402 20.9798 25.1329 21.5996C25.3493 22.2148 25.0299 22.5352 24.4091 22.5352L24.4119 22.5361Z" fill="white"/>
</svg>
